<?xml version="1.0" encoding="UTF-8"?>
<svg width="24px" height="24px" viewBox="0 0 24 24" version="1.1" xmlns="http://www.w3.org/2000/svg" xmlns:xlink="http://www.w3.org/1999/xlink">
    <!-- Generator: Sketch 48.2 (47327) - http://www.bohemiancoding.com/sketch -->
    <title>ic_archive</title>
    <desc>Created with Sketch.</desc>
    <defs></defs>
    <g id="Symbols" stroke="none" stroke-width="1" fill="none" fill-rule="evenodd">
        <g id="ic_archive" fill="#757575" fill-rule="nonzero">
            <path d="M5,15 L5,14 L14,14 L14,15 L5,15 Z M5,17 L5,16 L14,16 L14,17 L5,17 Z M4,5 C3.44771525,5 3,5.44771525 3,6 L3,18 C3,18.5522847 3.44771525,19 4,19 L20,19 C20.5522847,19 21,18.5522847 21,18 L21,6 C21,5.44771525 20.5522847,5 20,5 L4,5 Z M4,4 L20,4 C21.1045695,4 22,4.8954305 22,6 L22,18 C22,19.1045695 21.1045695,20 20,20 L4,20 C2.8954305,20 2,19.1045695 2,18 L2,6 C2,4.8954305 2.8954305,4 4,4 Z M15,8 L15,11 L18,11 L18,8 L15,8 Z M15,7 L18,7 C18.5522847,7 19,7.44771525 19,8 L19,11 C19,11.5522847 18.5522847,12 18,12 L15,12 C14.4477153,12 14,11.5522847 14,11 L14,8 C14,7.44771525 14.4477153,7 15,7 Z" id="Rectangle"></path>
        </g>
    </g>
</svg>