<?xml version="1.0" encoding="UTF-8"?>
<svg width="12px" height="12px" viewBox="0 0 12 12" version="1.1" xmlns="http://www.w3.org/2000/svg" xmlns:xlink="http://www.w3.org/1999/xlink">
    <!-- Generator: Sketch 48.2 (47327) - http://www.bohemiancoding.com/sketch -->
    <title>ic_Close</title>
    <desc>Created with Sketch.</desc>
    <defs>
        <path d="M6.76152344,5.99863281 L10.2451172,2.51777344 C10.4556641,2.30722656 10.4556641,1.96679687 10.2451172,1.75761719 C10.0345703,1.54707031 9.69414063,1.54707031 9.48496094,1.75761719 L6,5.23710937 L2.51503906,1.75625 C2.30449219,1.54570312 1.9640625,1.54570312 1.75488281,1.75625 C1.54433594,1.96679687 1.54433594,2.30722656 1.75488281,2.51640625 L5.23847656,5.99726562 L1.75488281,9.47949219 C1.54433594,9.69003906 1.54433594,10.0304687 1.75488281,10.2396484 C1.86015625,10.3449219 1.99824219,10.396875 2.13496094,10.396875 C2.27304688,10.396875 2.40976563,10.3449219 2.51503906,10.2396484 L6,6.75878906 L9.48496094,10.2410156 C9.59023438,10.3462891 9.72695313,10.3982422 9.86503906,10.3982422 C10.003125,10.3982422 10.1398438,10.3462891 10.2451172,10.2410156 C10.4556641,10.0304687 10.4556641,9.69003906 10.2451172,9.48085937 L6.76152344,5.99863281 Z" id="path-1"></path>
    </defs>
    <g id="Symbols" stroke="none" stroke-width="1" fill="none" fill-rule="evenodd">
        <g id="ic_Close">
            <mask id="mask-2" fill="white">
                <use xlink:href="#path-1"></use>
            </mask>
            <use id="Mask" fill="#BFBFBF" fill-rule="nonzero" xlink:href="#path-1"></use>
        </g>
    </g>
</svg>