<?xml version="1.0" encoding="UTF-8"?>
<svg width="24px" height="24px" viewBox="0 0 24 24" version="1.1" xmlns="http://www.w3.org/2000/svg" xmlns:xlink="http://www.w3.org/1999/xlink">
    <!-- Generator: Sketch 48.2 (47327) - http://www.bohemiancoding.com/sketch -->
    <title>ic_device</title>
    <desc>Created with Sketch.</desc>
    <defs></defs>
    <g id="Symbols" stroke="none" stroke-width="1" fill="none" fill-rule="evenodd">
        <g id="ic_device" fill="#757575" fill-rule="nonzero">
            <path d="M5.5,18 C5.22385763,18 5,17.7761424 5,17.5 C5,17.2238576 5.22385763,17 5.5,17 C5.77614237,17 6,17.2238576 6,17.5 C6,17.7761424 5.77614237,18 5.5,18 Z M7.5,18 C7.22385763,18 7,17.7761424 7,17.5 C7,17.2238576 7.22385763,17 7.5,17 C7.77614237,17 8,17.2238576 8,17.5 C8,17.7761424 7.77614237,18 7.5,18 Z M10.5,18 C10.2238576,18 10,17.7761424 10,17.5 C10,17.2238576 10.2238576,17 10.5,17 L17.5,17 C17.7761424,17 18,17.2238576 18,17.5 C18,17.7761424 17.7761424,18 17.5,18 L10.5,18 Z M3,16 L3,15 L21,15 L21,16 L3,16 Z M3,16.0764748 L3,19 C3,19.5522847 3.44771525,20 4,20 L20,20 C20.5522847,20 21,19.5522847 21,19 L21,16.0764732 L19.1420833,4.00001438 L4.85791848,4.00025382 L3,16.0764748 Z M2,16 L3.86954725,3.84819357 C3.94459865,3.36036956 4.36433816,3.0002621 4.85790172,3.00025382 L19.1420665,3.00001438 C19.6356439,3.00000611 20.055403,3.36011923 20.130455,3.8479572 L22,16 L22,19 C22,20.1045695 21.1045695,21 20,21 L4,21 C2.8954305,21 2,20.1045695 2,19 L2,16 Z" id="Line-2"></path>
        </g>
    </g>
</svg>