<?xml version="1.0" encoding="UTF-8"?>
<svg width="16px" height="16px" viewBox="0 0 16 16" version="1.1" xmlns="http://www.w3.org/2000/svg" xmlns:xlink="http://www.w3.org/1999/xlink">
    <!-- Generator: Sketch 48.2 (47327) - http://www.bohemiancoding.com/sketch -->
    <title>ic_error</title>
    <desc>Created with Sketch.</desc>
    <defs></defs>
    <g id="Symbols" stroke="none" stroke-width="1" fill="none" fill-rule="evenodd">
        <g id="ic_error" fill="#F5222D">
            <path d="M8,1 C4.13359375,1 1,4.13359375 1,8 C1,11.8664062 4.13359375,15 8,15 C11.8664062,15 15,11.8664062 15,8 C15,4.13359375 11.8664062,1 8,1 L8,1 Z M11.2949219,10.6154297 C11.4671875,10.7849609 11.4699219,11.0611328 11.3017578,11.2347656 L11.3017578,11.2347656 C11.1322266,11.4070312 10.8560547,11.4097656 10.6824219,11.2416016 L8,8.6125 L5.31757812,11.2402344 C5.1453125,11.4097656 4.86777344,11.4070312 4.69824219,11.2333984 L4.69824219,11.2333984 C4.52871094,11.0611328 4.53144531,10.7835937 4.70507812,10.6140625 L7.37519531,8 L4.70507812,5.38457031 C4.5328125,5.21503906 4.53007812,4.93886719 4.69824219,4.76523438 L4.69824219,4.76523438 C4.86777344,4.59296875 5.14394531,4.59023437 5.31757812,4.75839844 L8,7.3875 L10.6824219,4.75976562 C10.8546875,4.59023438 11.1322266,4.59296875 11.3017578,4.76660156 L11.3017578,4.76660156 C11.4712891,4.93886719 11.4685547,5.21640625 11.2949219,5.3859375 L8.62480469,8 L11.2949219,10.6154297 L11.2949219,10.6154297 Z" id="Shape"></path>
        </g>
    </g>
</svg>