<?xml version="1.0" encoding="UTF-8"?>
<svg width="16px" height="16px" viewBox="0 0 16 16" version="1.1" xmlns="http://www.w3.org/2000/svg" xmlns:xlink="http://www.w3.org/1999/xlink">
    <!-- Generator: Sketch 48.2 (47327) - http://www.bohemiancoding.com/sketch -->
    <title>ic_email_default</title>
    <desc>Created with Sketch.</desc>
    <defs></defs>
    <g id="Symbols" stroke="none" stroke-width="1" fill="none" fill-rule="evenodd">
        <g id="ic_email_default" fill="#9E9E9E">
            <path d="M14.9766547,6.20382218 C14.9766547,5.90194856 14.6034425,5.73942085 14.3935908,5.94842554 L9.26265693,10.6844575 C8.91279012,11.0094846 8.46959892,11.1720123 8.00317628,11.1720123 C7.5367821,11.1720123 7.0935909,11.0094846 6.74372409,10.6844575 L1.58944492,5.94842554 C1.35624783,5.73942085 1.00638102,5.90194856 1.00638102,6.20382218 L1.00638102,12.2399341 C1.00638102,13.0059824 1.63616405,13.6329114 2.40573438,13.6329114 L13.6006466,13.6329114 C14.370217,13.6329114 15,13.0059824 15,12.2399341 C14.9766547,12.2399341 14.9766547,8.06105906 14.9766547,6.20382218 Z M7.67668327,9.68616612 C7.8632751,9.84863715 8.119846,9.84863715 8.30635242,9.68616612 L14.9067041,3.60366221 C15.0232315,3.37141904 15,3 14.5334919,3 L1.47288908,3.02326683 C1.12302227,3.02326683 0.843106047,3.34826557 1.09967694,3.62681568 L7.67668327,9.68616612 Z" id="Fill-1"></path>
        </g>
    </g>
</svg>