<?xml version="1.0" encoding="UTF-8"?>
<svg width="16px" height="16px" viewBox="0 0 16 16" version="1.1" xmlns="http://www.w3.org/2000/svg" xmlns:xlink="http://www.w3.org/1999/xlink">
    <!-- Generator: Sketch 48.2 (47327) - http://www.bohemiancoding.com/sketch -->
    <title>ic_info</title>
    <desc>Created with Sketch.</desc>
    <defs></defs>
    <g id="Symbols" stroke="none" stroke-width="1" fill="none" fill-rule="evenodd">
        <g id="ic_info" fill="#1890FF">
            <path d="M1,8 C1,4.13359375 4.13359375,1 8,1 C11.8664062,1 15,4.13359375 15,8 C15,11.8664062 11.8664062,15 8,15 C4.13359375,15 1,11.8664062 1,8 Z M7.453125,6.796875 L7.453125,11.8417969 C7.453125,12.1439453 7.69785156,12.3886719 8,12.3886719 C8.30214844,12.3886719 8.546875,12.1439453 8.546875,11.8417969 L8.546875,6.796875 C8.546875,6.49472656 8.30214844,6.25 8,6.25 C7.69785156,6.25 7.453125,6.49472656 7.453125,6.796875 Z M8,5.375 C8.33978456,5.375 8.61523438,5.09955019 8.61523438,4.75976562 C8.61523438,4.41998106 8.33978456,4.14453125 8,4.14453125 C7.66021544,4.14453125 7.38476562,4.41998106 7.38476562,4.75976562 C7.38476562,5.09955019 7.66021544,5.375 8,5.375 Z" id="Shape" transform="translate(8.000000, 8.000000) scale(1, -1) translate(-8.000000, -8.000000) "></path>
        </g>
    </g>
</svg>