<?xml version="1.0" encoding="UTF-8"?>
<svg width="24px" height="24px" viewBox="0 0 24 24" version="1.1" xmlns="http://www.w3.org/2000/svg" xmlns:xlink="http://www.w3.org/1999/xlink">
    <!-- Generator: Sketch 48.2 (47327) - http://www.bohemiancoding.com/sketch -->
    <title>ic_order</title>
    <desc>Created with Sketch.</desc>
    <defs></defs>
    <g id="Symbols" stroke="none" stroke-width="1" fill="none" fill-rule="evenodd">
        <g id="ic_order" fill="#757575" fill-rule="nonzero">
            <path d="M8,1.48891626 C8,1.21277388 8.22385763,0.988916256 8.5,0.988916256 C8.77614237,0.988916256 9,1.21277388 9,1.48891626 L9,4.46674877 C9,4.74289114 8.77614237,4.96674877 8.5,4.96674877 C8.22385763,4.96674877 8,4.74289114 8,4.46674877 L8,1.48891626 Z M15,1.48891626 C15,1.21277388 15.2238576,0.988916256 15.5,0.988916256 C15.7761424,0.988916256 16,1.21277388 16,1.48891626 L16,4.46674877 C16,4.74289114 15.7761424,4.96674877 15.5,4.96674877 C15.2238576,4.96674877 15,4.74289114 15,4.46674877 L15,1.48891626 Z M6.5,10 C6.22385763,10 6,9.77614237 6,9.5 C6,9.22385763 6.22385763,9 6.5,9 L17.5,9 C17.7761424,9 18,9.22385763 18,9.5 C18,9.77614237 17.7761424,10 17.5,10 L6.5,10 Z M6.5,13 C6.22385763,13 6,12.7761424 6,12.5 C6,12.2238576 6.22385763,12 6.5,12 L17.5,12 C17.7761424,12 18,12.2238576 18,12.5 C18,12.7761424 17.7761424,13 17.5,13 L6.5,13 Z M6.5,16 C6.22385763,16 6,15.7761424 6,15.5 C6,15.2238576 6.22385763,15 6.5,15 L17.5,15 C17.7761424,15 18,15.2238576 18,15.5 C18,15.7761424 17.7761424,16 17.5,16 L6.5,16 Z M5,3 C4.44771525,3 4,3.44771525 4,4 L4,20 C4,20.5522847 4.44771525,21 5,21 L19,21 C19.5522847,21 20,20.5522847 20,20 L20,4 C20,3.44771525 19.5522847,3 19,3 L5,3 Z M5,2 L19,2 C20.1045695,2 21,2.8954305 21,4 L21,20 C21,21.1045695 20.1045695,22 19,22 L5,22 C3.8954305,22 3,21.1045695 3,20 L3,4 C3,2.8954305 3.8954305,2 5,2 Z" id="Rectangle-9"></path>
        </g>
    </g>
</svg>