<?xml version="1.0" encoding="UTF-8"?>
<svg width="16px" height="16px" viewBox="0 0 16 16" version="1.1" xmlns="http://www.w3.org/2000/svg" xmlns:xlink="http://www.w3.org/1999/xlink">
    <!-- Generator: Sketch 48.2 (47327) - http://www.bohemiancoding.com/sketch -->
    <title>ic_qq_default</title>
    <desc>Created with Sketch.</desc>
    <defs></defs>
    <g id="Symbols" stroke="none" stroke-width="1" fill="none" fill-rule="evenodd">
        <g id="ic_qq_default" fill="#9E9E9E">
            <path d="M13.491804,9.68595427 C13.3729164,9.30325286 13.2106881,8.85716761 13.0462327,8.42855573 L12.4463131,6.93132642 C12.446827,6.91385303 12.4543646,6.61903248 12.4543646,6.46708255 C12.4543646,3.90637502 11.2454461,1.33350464 8.27291485,1.33333333 C5.30038361,1.33350464 4.09146515,3.90637502 4.09146515,6.46708255 C4.09146515,6.61903248 4.09883139,6.91385303 4.09934531,6.93132642 L3.49942574,8.42855573 C3.33514165,8.85716761 3.17274195,9.30325286 3.0538544,9.68595427 C2.48699722,11.51021 2.67063907,12.2655056 2.81042616,12.2824651 C3.11055725,12.318611 3.97874469,10.90892 3.97874469,10.90892 C3.97874469,11.7253725 4.39896248,12.7905638 5.30843507,13.5597353 C4.96821797,13.664747 4.55159764,13.8259475 4.28350109,14.0238079 C4.04264246,14.2016253 4.07279262,14.3828688 4.11613346,14.4560172 C4.30662763,14.7773905 7.38468442,14.6612439 8.27325747,14.5612002 C9.16200183,14.6612439 12.239716,14.7773905 12.4302102,14.4560172 C12.4738936,14.3828688 12.5037012,14.2016253 12.2630138,14.0238079 C11.9949173,13.8257762 11.577783,13.6645756 11.2375659,13.559564 C12.1466959,12.7903924 12.567085,11.7252012 12.567085,10.90892 C12.567085,10.90892 13.4351011,12.318611 13.7352322,12.2824651 C13.8750193,12.2655056 14.0588325,11.51021 13.491804,9.68595427" id="Fill-1"></path>
        </g>
    </g>
</svg>