<?xml version="1.0" encoding="UTF-8"?>
<svg width="16px" height="16px" viewBox="0 0 16 16" version="1.1" xmlns="http://www.w3.org/2000/svg" xmlns:xlink="http://www.w3.org/1999/xlink">
    <!-- Generator: Sketch 48.2 (47327) - http://www.bohemiancoding.com/sketch -->
    <title>ic_question</title>
    <desc>Created with Sketch.</desc>
    <defs></defs>
    <g id="Symbols" stroke="none" stroke-width="1" fill="none" fill-rule="evenodd">
        <g id="ic_question" fill="#FAAD14" fill-rule="nonzero">
            <path d="M8,1 C4.13359375,1 1,4.13359375 1,8 C1,11.8664062 4.13359375,15 8,15 C11.8664062,15 15,11.8664062 15,8 C15,4.13359375 11.8664062,1 8,1 Z M7.91113281,12.1097656 C7.584375,12.1097656 7.31914062,11.8445312 7.31914062,11.5177734 C7.31914062,11.1910156 7.584375,10.9257812 7.91113281,10.9257812 C8.23789062,10.9257812 8.503125,11.1910156 8.503125,11.5177734 C8.503125,11.8445312 8.23789062,12.1097656 7.91113281,12.1097656 Z M10.4513672,6.34570312 C10.4171875,6.97871094 10.2230469,7.47773437 9.25234375,8.4484375 C8.76015625,8.940625 8.44980469,9.30976562 8.41835937,9.63378906 C8.39375,9.88808594 8.17910156,10.078125 7.92890625,10.078125 C7.9125,10.078125 7.89609375,10.0767578 7.8796875,10.0753906 C7.60898437,10.0494141 7.41210937,9.80742187 7.43808594,9.53671875 C7.50507812,8.85449219 8.00546875,8.30351562 8.55644531,7.75253906 C9.43828125,6.87070312 9.45332031,6.59042969 9.46835937,6.29375 C9.48613281,5.94785156 9.35898437,5.61289062 9.10742187,5.34902344 C8.82167969,5.04824219 8.41699219,4.87597656 7.99726562,4.87597656 C7.99589844,4.87597656 7.99453125,4.87597656 7.99453125,4.87597656 C7.18652344,4.87734375 6.52753906,5.53632812 6.52753906,6.34570312 C6.52753906,6.61777344 6.30742187,6.83789062 6.03535156,6.83789062 C5.76328125,6.83789062 5.54316406,6.61777344 5.54316406,6.34570312 C5.54316406,5.69082031 5.79746094,5.07558594 6.25957031,4.61210937 C6.72167969,4.14863281 7.33691406,3.89296875 7.99179687,3.89160156 C8.68222656,3.89023437 9.34941406,4.17460937 9.82109375,4.67089844 C10.2613281,5.13164062 10.4841797,5.72636719 10.4513672,6.34570312 Z" id="Shape"></path>
        </g>
    </g>
</svg>