<?xml version="1.0" encoding="UTF-8"?>
<svg width="16px" height="16px" viewBox="0 0 16 16" version="1.1" xmlns="http://www.w3.org/2000/svg" xmlns:xlink="http://www.w3.org/1999/xlink">
    <!-- Generator: Sketch 48.2 (47327) - http://www.bohemiancoding.com/sketch -->
    <title>ic_success</title>
    <desc>Created with Sketch.</desc>
    <defs></defs>
    <g id="Symbols" stroke="none" stroke-width="1" fill="none" fill-rule="evenodd">
        <g id="ic_success" fill="#52C41A">
            <path d="M8,15 C4.13391984,15 1,11.8660802 1,8 C1,4.13391984 4.13391984,1 8,1 C11.8660802,1 15,4.13391984 15,8 C15,11.8660802 11.8660802,15 8,15 L8,15 Z M12.2314761,9.85571848 L6.54662757,4.32277615 C6.37556207,4.15171065 6.09775171,4.15171065 5.92668622,4.32277615 L3.75483871,6.39882698 C3.58377322,6.56989247 3.58377322,6.84770283 3.75483871,7.01876833 L3.75483871,7.01876833 C3.9259042,7.18983382 4.20371457,7.18983382 4.37478006,7.01876833 L6.23734115,5.25200391 L11.6115347,10.4756598 C11.7826002,10.6467253 12.0604106,10.6467253 12.2314761,10.4756598 L12.2314761,10.4756598 C12.4025415,10.3045943 12.4025415,10.026784 12.2314761,9.85571848 L12.2314761,9.85571848 Z" id="Shape" transform="translate(8.000000, 8.000000) scale(1, -1) translate(-8.000000, -8.000000) "></path>
        </g>
    </g>
</svg>