<?xml version="1.0" encoding="UTF-8"?>
<svg width="17px" height="16px" viewBox="0 0 17 16" version="1.1" xmlns="http://www.w3.org/2000/svg" xmlns:xlink="http://www.w3.org/1999/xlink">
    <!-- Generator: Sketch 48.2 (47327) - http://www.bohemiancoding.com/sketch -->
    <title>ic_wecaht_default</title>
    <desc>Created with Sketch.</desc>
    <defs></defs>
    <g id="Symbols" stroke="none" stroke-width="1" fill="none" fill-rule="evenodd">
        <g id="ic_wecaht_default" fill="#9E9E9E">
            <path d="M6.44984136,2 C3.25593522,2 0.666666667,4.15759882 0.666666667,6.8193539 C0.666666667,8.27133392 1.4457718,9.57859086 2.66479514,10.4619266 C2.76277692,10.5319136 2.82676502,10.6463923 2.82676502,10.7761182 C2.82676502,10.8186103 2.8177667,10.857853 2.80651879,10.8990953 C2.70903691,11.2620278 2.55331587,11.8436697 2.54606722,11.8709146 C2.53381949,11.9164062 2.51482303,11.9641473 2.51482303,12.0118884 C2.51482303,12.1183686 2.60105699,12.2046026 2.70778715,12.2046026 C2.74952938,12.2046026 2.78377302,12.1891055 2.81901646,12.1686093 L4.08503106,11.4377452 C4.18026336,11.3827554 4.28099463,11.3487617 4.39222395,11.3487617 C4.45121298,11.3487617 4.50845233,11.35776 4.56219234,11.374257 C5.15283252,11.5442254 5.78996405,11.6387078 6.44984136,11.6387078 C6.55632156,11.6387078 6.66230185,11.6357084 6.76753229,11.6309592 C6.64180566,11.2550291 6.5733184,10.8593527 6.5733184,10.4499288 C6.5733184,8.02238021 8.93437939,6.05449612 11.8475877,6.05449612 C11.9530681,6.05449612 12.0575487,6.05799547 12.1615293,6.06299454 C11.7258603,3.76067262 9.33505489,2 6.44984136,2 M4.52219978,6.04824728 C4.09627897,6.04824728 3.75109316,5.70306146 3.75109316,5.27714066 C3.75109316,4.85121985 4.09627897,4.50603403 4.52219978,4.50603403 C4.94812058,4.50603403 5.2933064,4.85121985 5.2933064,5.27714066 C5.2933064,5.70306146 4.94812058,6.04824728 4.52219978,6.04824728 M8.37773289,6.04824728 C7.95156213,6.04824728 7.60637631,5.70306146 7.60637631,5.27714066 C7.60637631,4.85121985 7.95156213,4.50603403 8.37773289,4.50603403 C8.80340374,4.50603403 9.14858956,4.85121985 9.14858956,5.27714066 C9.14858956,5.70306146 8.80340374,6.04824728 8.37773289,6.04824728 M15.0017262,13.4854144 C16.0175374,12.7490513 16.6666667,11.6600038 16.6666667,10.4497289 C16.6666667,8.2316413 14.5090678,6.4337256 11.8475627,6.4337256 C9.18580764,6.4337256 7.02820882,8.2316413 7.02820882,10.4497289 C7.02820882,12.6678165 9.18580764,14.4659821 11.8475627,14.4659821 C12.3972105,14.4659821 12.9281118,14.3869968 13.4207702,14.2457731 C13.4655119,14.2320256 13.5130031,14.224527 13.5619939,14.224527 C13.6547267,14.224527 13.7387111,14.2527718 13.8181963,14.2985132 L14.8730002,14.9074 C14.9027446,14.9246468 14.9312393,14.9376444 14.9657329,14.9376444 C15.0549663,14.9376444 15.126703,14.8654078 15.126703,14.7769243 C15.126703,14.7371817 15.1109559,14.6974391 15.1007078,14.6594461 C15.094459,14.6367004 14.9647331,14.1520405 14.8834982,13.8495967 C14.8742499,13.8153531 14.8667513,13.7823592 14.8667513,13.7471158 C14.8667513,13.6391358 14.9199914,13.5434036 15.0017262,13.4854144 M10.2408615,9.80734832 C9.88617741,9.80734832 9.59848091,9.51965181 9.59848091,9.16471781 C9.59848091,8.80978381 9.88617741,8.5220873 10.2408615,8.5220873 C10.5957955,8.5220873 10.883492,8.80978381 10.883492,9.16471781 C10.883492,9.51965181 10.5957955,9.80734832 10.2408615,9.80734832 M13.454014,9.80734832 C13.09908,9.80734832 12.8111336,9.51965181 12.8111336,9.16471781 C12.8111336,8.80978381 13.09908,8.5220873 13.454014,8.5220873 C13.808948,8.5220873 14.0966445,8.80978381 14.0966445,9.16471781 C14.0966445,9.51965181 13.808948,9.80734832 13.454014,9.80734832" id="Fill-4"></path>
        </g>
    </g>
</svg>