<?xml version="1.0" encoding="UTF-8"?>
<svg width="16px" height="16px" viewBox="0 0 16 16" version="1.1" xmlns="http://www.w3.org/2000/svg" xmlns:xlink="http://www.w3.org/1999/xlink">
    <!-- Generator: Sketch 48.2 (47327) - http://www.bohemiancoding.com/sketch -->
    <title>ic_warning</title>
    <desc>Created with Sketch.</desc>
    <defs></defs>
    <g id="Symbols" stroke="none" stroke-width="1" fill="none" fill-rule="evenodd">
        <g id="ic_warning" fill="#FAAD14">
            <path d="M1,8 C1,4.13359375 4.13359375,1 8,1 C11.8664062,1 15,4.13359375 15,8 C15,11.8664062 11.8664062,15 8,15 C4.13359375,15 1,11.8664062 1,8 Z M8.4375,4.0625 C8.4375,3.82050781 8.24199219,3.625 8,3.625 L8,3.625 C7.75800781,3.625 7.5625,3.82050781 7.5625,4.0625 L7.5625,4.0625 C7.5625,4.30449219 7.75800781,4.5 8,4.5 L8,4.5 C8.24199219,4.5 8.4375,4.30449219 8.4375,4.0625 L8.4375,4.0625 L8.4375,4.0625 Z M8.4375,5.8125 C8.4375,5.57050781 8.24199219,5.375 8,5.375 L8,5.375 C7.75800781,5.375 7.5625,5.57050781 7.5625,5.8125 L7.5625,11.9375 C7.5625,12.1794922 7.75800781,12.375 8,12.375 L8,12.375 C8.24199219,12.375 8.4375,12.1794922 8.4375,11.9375 L8.4375,5.8125 L8.4375,5.8125 Z" id="Shape-Copy-2" transform="translate(8.000000, 8.000000) scale(1, -1) translate(-8.000000, -8.000000) "></path>
        </g>
    </g>
</svg>