<?xml version="1.0" encoding="UTF-8"?>
<svg width="20px" height="20px" viewBox="0 0 20 20" version="1.1" xmlns="http://www.w3.org/2000/svg" xmlns:xlink="http://www.w3.org/1999/xlink">
    <!-- Generator: Sketch 49 (51002) - http://www.bohemiancoding.com/sketch -->
    <title>language</title>
    <desc>Created with Sketch.</desc>
    <defs></defs>
    <g id="前台" stroke="none" stroke-width="1" fill="none" fill-rule="evenodd">
        <g id="首页" transform="translate(-1228.000000, -21.000000)">
            <g id="导航">
                <g id="language" transform="translate(1226.000000, 20.000000)">
                    <rect id="Rectangle" x="0" y="0" width="24" height="24"></rect>
                    <path d="M19.5408345,17.5700404 C21.131261,15.749973 22,13.4439584 22,11.0042291 C22,8.33429269 20.9601172,5.82410778 19.071897,3.93615169 C17.2127203,2.07721215 14.7500476,1.04139415 12.1257213,1.00997102 C12.082603,0.996539982 11.8952068,0.996700418 11.8518134,1.01031483 C9.23800879,1.04877436 6.78633917,2.08385892 4.93378725,3.93615169 C3.07738426,5.7923179 2.04171935,8.2500163 2.00733471,10.8695749 C1.99772995,10.9065217 1.99754655,11.0622394 2.00685334,11.0986361 C2.03110596,13.733253 3.06787118,16.2066516 4.93378725,18.0723066 C6.82200748,19.9602627 9.33252067,21 12.0028536,21 C14.6731636,21 17.1836997,19.9602627 19.0719199,18.0723066 C19.2094584,17.9347873 19.3419538,17.793578 19.4704148,17.6496182 C19.4817847,17.6394647 19.4928565,17.6288299 19.5033782,17.617347 C19.5172008,17.6022887 19.5293959,17.5863365 19.5408345,17.5700404 Z M2.93365653,11.4435803 L7.13387604,11.4435803 C7.16349267,12.9146467 7.34116948,14.2940337 7.63802341,15.5225162 C6.25610532,15.8962706 5.37957244,16.3819657 4.92578709,16.685104 C3.75941476,15.2353759 3.02839762,13.4216115 2.93365653,11.4435803 Z M4.91466939,5.33712915 C5.36471829,5.64077169 6.24175546,6.13139456 7.63281986,6.50764727 C7.34165086,7.71999415 7.16626634,9.07843233 7.13454079,10.526556 L2.93542159,10.526556 C3.03736055,8.5696569 3.76228014,6.77516808 4.91466939,5.33712915 Z M21.0702856,10.5265331 L16.8711434,10.5265331 C16.8394408,9.07893657 16.664148,7.72095679 16.3731853,6.50893078 C17.7610404,6.13503883 18.6409659,5.64785392 19.0964018,5.34377592 C20.2456735,6.78071468 20.9684842,8.57268234 21.0702856,10.5265331 Z M15.9538075,10.5265331 L12.4478136,10.5265331 L12.4478136,7.03159566 C13.6173493,7.00707139 14.6230308,6.88704 15.4780618,6.71727248 C15.7594197,7.88501727 15.9226321,9.17811088 15.9538075,10.5265331 Z M12.4478136,6.11450263 L12.4478136,1.98887894 C13.2730904,2.22179074 14.0781491,3.09098123 14.7086714,4.45299489 C14.9060392,4.87935044 15.0815383,5.34088801 15.2342978,5.8309379 C14.4496635,5.98262166 13.5251756,6.09091808 12.4478136,6.11450263 Z M11.5306381,1.99683216 L11.5306381,6.11367751 C10.4664797,6.08844273 9.55086303,5.97925243 8.77262433,5.82692693 C8.92510869,5.33836684 9.10019521,4.87815863 9.2970128,4.45294907 C9.92063528,3.10594791 10.7149201,2.24102052 11.5306381,1.99683216 Z M11.5306381,7.03113725 L11.5306381,10.5265331 L8.05187675,10.5265331 C8.08305214,9.17788168 8.24631034,7.88458179 8.52775997,6.71667654 C9.37531805,6.88545851 10.3716928,7.00530655 11.5306381,7.03113725 Z M8.05107444,11.4435803 L11.5306381,11.4435803 L11.5306381,14.9973989 C10.3745353,15.0241463 9.37969635,15.1444069 8.53289473,15.3132806 C8.24559974,14.1287355 8.0802097,12.8143264 8.05107444,11.4435803 Z M11.5306381,15.9148357 L11.5306381,20.0116261 C10.7148972,19.7674378 9.92063528,18.9025104 9.29703572,17.5554863 C9.10260213,17.1354795 8.92944115,16.6812076 8.77828634,16.1992713 C9.55425564,16.048619 10.4676947,15.9405518 11.5306381,15.9148357 Z M12.4478136,20.0195793 L12.4478136,15.9134146 C13.5209119,15.9363804 14.4438181,16.0447226 15.2281544,16.1968877 C15.0768162,16.6796949 14.903403,17.134769 14.7086714,17.5554634 C14.0781491,18.9174771 13.2730904,19.7866675 12.4478136,20.0195793 Z M12.4478136,14.9962528 L12.4478136,11.4435803 L15.9546098,11.4435803 C15.9255204,12.8120115 15.7606118,14.1242662 15.4742107,15.3072756 C14.6204176,15.1385624 13.6160656,15.0197916 12.4478136,14.9962528 Z M16.8718311,11.4435803 L21.0720506,11.4435803 C20.9774929,13.4176922 20.2492036,15.2282249 19.0868658,16.676509 C18.6283353,16.3703682 17.7509772,15.8858879 16.3695405,15.5147692 C16.6652483,14.2882349 16.8422604,12.9115755 16.8718311,11.4435803 Z M18.4815588,4.6502892 C18.0709605,4.90944424 17.3097766,5.30779171 16.1326305,5.62445272 C15.7003928,4.2121299 15.0997163,3.04860236 14.383966,2.24289993 C15.9610283,2.67184543 17.3685514,3.51593866 18.4815588,4.6502892 Z M9.62171829,2.24289995 C8.90699947,3.04743346 8.30698776,4.20873779 7.87491057,5.61831021 C6.70101947,5.2993343 5.94013355,4.89935951 5.53217145,4.64203805 C6.64391804,3.511836 8.04848414,2.67081405 9.62171829,2.24289995 Z M5.54271605,17.3772155 C5.9523057,17.1188397 6.70977607,16.7225092 7.87986195,16.4065816 C8.31157239,17.8087968 8.90977316,18.964119 9.62171829,19.7655583 C8.05345844,19.3389965 6.65278929,18.5020085 5.54271605,17.3772155 Z M14.383966,19.7655583 C15.0963466,18.9636377 15.6948225,17.8073987 16.1266017,16.4040375 C17.2911173,16.7181315 18.0524616,17.1125138 18.4682634,17.3718064 C17.357342,18.4993039 15.9547244,19.3383319 14.383966,19.7655583 Z" id="Shape" fill="#FFFFFF" fill-rule="nonzero"></path>
                </g>
            </g>
        </g>
    </g>
</svg>