<?xml version="1.0" encoding="UTF-8"?>
<svg width="88px" height="32px" viewBox="0 0 88 32" version="1.1" xmlns="http://www.w3.org/2000/svg" xmlns:xlink="http://www.w3.org/1999/xlink">
    <!-- Generator: Sketch 48.2 (47327) - http://www.bohemiancoding.com/sketch -->
    <title>logo</title>
    <desc>Created with Sketch.</desc>
    <defs></defs>
    <g id="Symbols" stroke="none" stroke-width="1" fill="none" fill-rule="evenodd">
        <g id="logo" fill="#1890FF">
            <path d="M82,2.28571429 L86.5714286,2.28571429 L86.5714286,25.9057143 L86.5714286,29.7142857 L86.5714286,32 L84.3542857,29.7142857 L82,27.2885714 L66,10.8057143 L66,29.7142857 L61.4285714,29.7142857 L61.4285714,6.09428571 L61.4285714,2.28571429 L61.4285714,0 L63.6457143,2.28571429 L66,4.71142857 L82,21.1942857 L82,2.28571429 Z M44.2857143,0 L46.5714286,5.40285714 L56.8571429,29.7142857 L52.2857143,29.7142857 L44.2857143,10.8057143 L36.2857143,29.7142857 L31.7142857,29.7142857 L42,5.40285714 L44.2857143,0 Z M15.7142857,6.85714286 C10.6742857,6.85714286 6.57142857,10.96 6.57142857,16 C6.57142857,21.04 10.6742857,25.1428571 15.7142857,25.1428571 L25.9342857,25.1428571 L29.0771429,25.1428571 L27.1428571,29.7142857 L15.7142857,29.7142857 C8.14,29.7142857 2,23.5742857 2,16 C2,8.42571429 8.14,2.28571429 15.7142857,2.28571429 L29.0771429,2.28571429 L27.1428571,6.85714286 L25.9342857,6.85714286 L15.7142857,6.85714286 Z" id="Combined-Shape"></path>
        </g>
    </g>
</svg>