<?xml version="1.0" encoding="UTF-8"?>
<svg width="72px" height="32px" viewBox="0 0 72 32" version="1.1" xmlns="http://www.w3.org/2000/svg" xmlns:xlink="http://www.w3.org/1999/xlink">
    <!-- Generator: Sketch 48.2 (47327) - http://www.bohemiancoding.com/sketch -->
    <title>logo_white</title>
    <desc>Created with Sketch.</desc>
    <defs></defs>
    <g id="Symbols" stroke="none" stroke-width="1" fill="none" fill-rule="evenodd">
        <g id="logo_white" fill="#DEDEDE">
            <path d="M12.2116788,5.6057927 L20.5667153,5.6057927 L21.5547445,5.6057927 L23.1360584,1.86856642 L12.2116788,1.86856642 C6.01956204,1.86856642 1,6.88812847 1,13.0802453 C1,19.272362 6.01956204,24.2919241 12.2116788,24.2919241 L21.5547445,24.2919241 L23.1360584,20.5546978 L20.5667153,20.5546978 L12.2116788,20.5546978 C8.09138686,20.5546978 4.73722628,17.2005372 4.73722628,13.0802453 C4.73722628,8.95995328 8.09138686,5.6057927 12.2116788,5.6057927" id="Fill-1"></path>
            <polygon id="Fill-3" points="35.5693431 -4.67153285e-05 33.7007299 4.41688759 25.2919708 24.2919241 29.0291971 24.2919241 35.5693431 8.8338219 42.1094891 24.2919241 45.8467153 24.2919241 37.4379562 4.41688759"></polygon>
            <polygon id="Fill-6" points="66.4014599 1.86856642 66.4014599 17.3266686 53.3211679 3.85163212 51.3964964 1.86856642 49.5839416 -4.67153285e-05 49.5839416 1.86856642 49.5839416 4.98214307 49.5839416 24.2919241 53.3211679 24.2919241 53.3211679 8.8338219 66.4014599 22.3088584 68.3261314 24.2919241 70.1386861 26.1605372 70.1386861 24.2919241 70.1386861 21.1783474 70.1386861 1.86856642"></polygon>
            <path d="M4.8558365,28.3329869 L4.8558365,28.9624759 C4.54868321,28.7055416 4.2307854,28.5770745 3.90237664,28.5770745 C3.54033285,28.5770745 3.23551533,28.7071766 2.98769051,28.9671474 C2.73846423,29.2254832 2.61350073,29.5419796 2.61350073,29.9159358 C2.61350073,30.285454 2.73846423,30.5972788 2.98769051,30.8511766 C3.23691679,31.1050745 3.54266861,31.2321401 3.90471241,31.2321401 C4.0918073,31.2321401 4.25063942,31.2017752 4.38144234,31.1408117 C4.45431825,31.1106803 4.52999708,31.0695708 4.60824526,31.0177168 C4.68649343,30.9658628 4.76917956,30.9037314 4.8558365,30.8306219 L4.8558365,31.4717898 C4.55171971,31.6434686 4.23242044,31.7294248 3.89770511,31.7294248 C3.39434745,31.7294248 2.9648,31.5537752 2.60906277,31.2024759 C2.25472701,30.8483737 2.07744234,30.4206949 2.07744234,29.9206073 C2.07744234,29.4719066 2.2257635,29.0720234 2.52240584,28.7207241 C2.88725255,28.2902423 3.35954453,28.0751182 3.9388146,28.0751182 C4.25531095,28.0751182 4.5608292,28.161308 4.8558365,28.3329869" id="Fill-9"></path>
            <path d="M5.86404672,29.8954978 C5.86404672,30.2848701 5.99484964,30.6048701 6.25645547,30.8557314 C6.51642628,31.1068263 6.81680584,31.2322569 7.15736058,31.2322569 C7.52687883,31.2322569 7.83870365,31.1044905 8.09260146,30.8489577 C8.34649927,30.5906219 8.47356496,30.2757606 8.47356496,29.9046073 C8.47356496,29.5290161 8.34813431,29.2141547 8.09727299,28.9602569 C7.84781314,28.7047241 7.53902482,28.5769577 7.17114161,28.5769577 C6.80442628,28.5769577 6.4951708,28.7047241 6.24267445,28.9602569 C5.9901781,29.2127533 5.86404672,29.5243445 5.86404672,29.8954978 M5.32798832,29.8887241 C5.32798832,29.3930745 5.50971095,28.9670307 5.8731562,28.6112934 C6.2352,28.2555562 6.66988613,28.0775708 7.17791533,28.0775708 C7.67963796,28.0775708 8.11011971,28.2569577 8.46889343,28.6157314 C8.82930219,28.9747387 9.00962336,29.4056876 9.00962336,29.9092788 C9.00962336,30.415673 8.82860146,30.8449869 8.46679124,31.1979212 C8.10334599,31.5522569 7.66445547,31.7295416 7.15058686,31.7295416 C6.69604672,31.7295416 6.28752117,31.5721109 5.92571095,31.2572496 C5.5272292,30.9089869 5.32798832,30.4528117 5.32798832,29.8887241" id="Fill-11"></path>
            <polygon id="Fill-13" points="9.67790949 31.665565 9.67790949 27.9040467 12.2463182 30.5911124 12.2463182 28.1436964 12.7777051 28.1436964 12.7777051 31.8799883 10.2092964 29.1996964 10.2092964 31.665565"></polygon>
            <polygon id="Fill-15" points="14.5935299 28.6432234 14.5935299 31.6654715 14.0621431 31.6654715 14.0621431 28.6432234 13.2523328 28.6432234 13.2523328 28.1436029 15.4010044 28.1436029 15.4010044 28.6432234"></polygon>
            <polygon id="Fill-17" points="17.8188964 28.6432234 16.4069255 28.6432234 16.4069255 29.4894715 17.7777869 29.4894715 17.7777869 29.989092 16.4069255 29.989092 16.4069255 31.1660847 17.8188964 31.1660847 17.8188964 31.6654715 15.8755387 31.6654715 15.8755387 28.1436029 17.8188964 28.1436029"></polygon>
            <polygon id="Fill-19" points="18.5168701 31.665565 18.5168701 27.9040467 21.0852788 30.5911124 21.0852788 28.1436964 21.6166657 28.1436964 21.6166657 31.8799883 19.0482569 29.1996964 19.0482569 31.665565"></polygon>
            <polygon id="Fill-21" points="23.4324905 28.6432234 23.4324905 31.6654715 22.9011036 31.6654715 22.9011036 28.6432234 22.0912934 28.6432234 22.0912934 28.1436029 24.239965 28.1436029 24.239965 28.6432234"></polygon>
            <path d="M28.0082102,30.3106336 L27.4859328,29.1130861 L26.9384292,30.3106336 L28.0082102,30.3106336 Z M28.2249693,30.810254 L26.7172321,30.810254 L26.3248234,31.6656117 L25.752327,31.6656117 L27.4950423,27.9223124 L29.1760934,31.6656117 L28.5944876,31.6656117 L28.2249693,30.810254 Z" id="Fill-23"></path>
            <polygon id="Fill-25" points="29.6163387 31.665565 29.6163387 27.9040467 32.1847474 30.5911124 32.1847474 28.1436964 32.7161343 28.1436964 32.7161343 31.8799883 30.1477255 29.1996964 30.1477255 31.665565"></polygon>
            <path d="M34.0916905,31.1660146 L34.3311066,31.1660146 C34.5700555,31.1660146 34.768362,31.1410219 34.9264934,31.0908029 C35.0846248,31.0375474 35.2275737,30.9532263 35.3553401,30.8376058 C35.616946,30.5986569 35.7477489,30.2877664 35.7477489,29.9047007 C35.7477489,29.518365 35.6183474,29.2049051 35.3600117,28.9647883 C35.1273693,28.750365 34.7844788,28.6431533 34.3311066,28.6431533 L34.0916905,28.6431533 L34.0916905,31.1660146 Z M33.5603036,31.665635 L33.5603036,28.1437664 L34.2993401,28.1437664 C34.6534423,28.1437664 34.9335007,28.1785693 35.138581,28.2486423 C35.3593109,28.3170803 35.559019,28.4334015 35.7386394,28.5976058 C36.1018511,28.9290511 36.2838073,29.3646715 36.2838073,29.9047007 C36.2838073,30.4458978 36.0943766,30.883854 35.7157489,31.2185693 C35.5258511,31.3855766 35.3263766,31.5018978 35.1182599,31.5675328 C34.9236905,31.6329343 34.6476029,31.665635 34.2902307,31.665635 L33.5603036,31.665635 Z" id="Fill-27"></path>
            <path d="M40.2458978,30.3106336 L39.7236204,29.1130861 L39.1761168,30.3106336 L40.2458978,30.3106336 Z M40.4626569,30.810254 L38.9549197,30.810254 L38.5625109,31.6656117 L37.9900146,31.6656117 L39.7327299,27.9223124 L41.413781,31.6656117 L40.8321752,31.6656117 L40.4626569,30.810254 Z" id="Fill-29"></path>
            <path d="M42.3854832,31.1660146 L42.6248993,31.1660146 C42.8638482,31.1660146 43.0621547,31.1410219 43.2202861,31.0908029 C43.3784175,31.0375474 43.5213664,30.9532263 43.6491328,30.8376058 C43.9107387,30.5986569 44.0415416,30.2877664 44.0415416,29.9047007 C44.0415416,29.518365 43.9121401,29.2049051 43.6538044,28.9647883 C43.421162,28.750365 43.0782715,28.6431533 42.6248993,28.6431533 L42.3854832,28.6431533 L42.3854832,31.1660146 Z M41.8540964,31.665635 L41.8540964,28.1437664 L42.5931328,28.1437664 C42.947235,28.1437664 43.2272934,28.1785693 43.4323737,28.2486423 C43.6531036,28.3170803 43.8528117,28.4334015 44.0324321,28.5976058 C44.3956438,28.9290511 44.5776,29.3646715 44.5776,29.9047007 C44.5776,30.4458978 44.3881693,30.883854 44.0095416,31.2185693 C43.8196438,31.3855766 43.6201693,31.5018978 43.4120526,31.5675328 C43.2174832,31.6329343 42.9413956,31.665635 42.5840234,31.665635 L41.8540964,31.665635 Z" id="Fill-31"></path>
            <polygon id="Fill-33" points="46.6874978 31.665565 46.6874978 27.9040467 49.2559066 30.5911124 49.2559066 28.1436964 49.7872934 28.1436964 49.7872934 31.8799883 47.2188847 29.1996964 47.2188847 31.665565"></polygon>
            <polygon id="Fill-35" points="52.5748204 28.6432234 51.1628496 28.6432234 51.1628496 29.4894715 52.5337109 29.4894715 52.5337109 29.989092 51.1628496 29.989092 51.1628496 31.1660847 52.5748204 31.1660847 52.5748204 31.6654715 50.6314628 31.6654715 50.6314628 28.1436029 52.5748204 28.1436029"></polygon>
            <polygon id="Fill-37" points="54.2445197 28.6432234 54.2445197 31.6654715 53.7131328 31.6654715 53.7131328 28.6432234 52.9033226 28.6432234 52.9033226 28.1436029 55.0519942 28.1436029 55.0519942 28.6432234"></polygon>
            <polygon id="Fill-39" points="55.9096642 28.143673 56.8266861 30.4976584 57.7845839 27.9726949 58.7016058 30.4976584 59.6756204 28.143673 60.2527883 28.143673 58.6787153 31.8890745 57.7733723 29.3937752 56.8290219 31.8914102 55.3324964 28.143673"></polygon>
            <path d="M60.8914336,29.8954978 C60.8914336,30.2848701 61.0222365,30.6048701 61.2838423,30.8557314 C61.5438131,31.1068263 61.8441927,31.2322569 62.1847474,31.2322569 C62.5542657,31.2322569 62.8660905,31.1044905 63.1199883,30.8489577 C63.3738861,30.5906219 63.5009518,30.2757606 63.5009518,29.9046073 C63.5009518,29.5290161 63.3755212,29.2141547 63.1246599,28.9602569 C62.8752,28.7047241 62.5664117,28.5769577 62.1985285,28.5769577 C61.8318131,28.5769577 61.5225577,28.7047241 61.2700613,28.9602569 C61.017565,29.2127533 60.8914336,29.5243445 60.8914336,29.8954978 M60.3553752,29.8887241 C60.3553752,29.3930745 60.5370978,28.9670307 60.9005431,28.6112934 C61.2625869,28.2555562 61.697273,28.0775708 62.2053022,28.0775708 C62.7070248,28.0775708 63.1375066,28.2569577 63.4962803,28.6157314 C63.8566891,28.9747387 64.0370102,29.4056876 64.0370102,29.9092788 C64.0370102,30.415673 63.8559883,30.8449869 63.4941781,31.1979212 C63.1307328,31.5522569 62.6918423,31.7295416 62.1779737,31.7295416 C61.7234336,31.7295416 61.314908,31.5721109 60.9530978,31.2572496 C60.5546161,30.9089869 60.3553752,30.4528117 60.3553752,29.8887241" id="Fill-42"></path>
            <path d="M65.2367766,29.7609109 L65.4056526,29.7609109 C65.9090102,29.7609109 66.1605723,29.5686774 66.1605723,29.1837431 C66.1605723,28.8233343 65.9157839,28.6432467 65.4262073,28.6432467 L65.2367766,28.6432467 L65.2367766,29.7609109 Z M65.8982657,30.164765 L66.9886015,31.6654949 L66.3385577,31.6654949 L65.3325431,30.2238599 L65.2367766,30.2238599 L65.2367766,31.6654949 L64.7053898,31.6654949 L64.7053898,28.1436263 L65.3281051,28.1436263 C65.7933898,28.1436263 66.129273,28.2309839 66.3362219,28.4059328 C66.5644263,28.6005022 66.6784117,28.8576701 66.6784117,29.1769693 C66.6784117,29.4261956 66.6069372,29.640619 66.4639883,29.8202394 C66.3210394,29.9996263 66.1325431,30.114546 65.8982657,30.164765 Z" id="Fill-44"></path>
            <polygon id="Fill-46" points="68.049273 29.5487766 69.4201343 28.1435796 70.1295066 28.1435796 68.5374482 29.7382073 70.1386161 31.6656818 69.426908 31.6656818 68.1588204 30.0986161 68.049273 30.2079299 68.049273 31.6656818 67.5178861 31.6656818 67.5178861 28.1435796 68.049273 28.1435796"></polygon>
        </g>
    </g>
</svg>